{
  "accessors": [
    {
      "bufferView": 2,
      "componentType": 5126,
      "count": 2359,
      "max": [
        1.278640866279602,
        0.95024174451828,
        2.40859317779541
      ],
      "min": [
        -0.9388933181762695,
        -0.951530396938324,
        -3.052016258239746
      ],
      "type": "VEC3"
    },
    {
      "bufferView": 2,
      "byteOffset": 28308,
      "componentType": 5126,
      "count": 2359,
      "max": [
        0.9999386072158813,
        0.9999183416366577,
        0.9999957084655762
      ],
      "min": [
        -0.9999382495880127,
        -0.9999183416366577,
        -0.9999666213989258
      ],
      "type": "VEC3"
    },
    {
      "bufferView": 3,
      "componentType": 5126,
      "count": 2359,
      "max": [
        1.0,
        0.13047872483730316,
        0.999939501285553,
        1.0
      ],
      "min": [
        -1.0,
        -0.6359579563140869,
        -0.9999396800994873,
        1.0
      ],
      "type": "VEC4"
    },
    {
      "bufferView": 1,
      "componentType": 5126,
      "count": 2359,
      "max": [
        0.875,
        1.0
      ],
      "min": [
        0.1249999850988388,
        0.0
      ],
      "type": "VEC2"
    },
    {
      "bufferView": 0,
      "componentType": 5125,
      "count": 13020,
      "type": "SCALAR"
    },
    {
      "bufferView": 2,
      "byteOffset": 56616,
      "componentType": 5126,
      "count": 360,
      "max": [
        16.017723083496094,
        21.780750274658203,
        2.0
      ],
      "min": [
        -21.0,
        -0.2192506194114685,
        -0.9817410707473755
      ],
      "type": "VEC3"
    },
    {
      "bufferView": 2,
      "byteOffset": 60936,
      "componentType": 5126,
      "count": 360,
      "max": [
        1.0,
        1.0,
        1.0
      ],
      "min": [
        -1.0,
        -1.0,
        -1.0
      ],
      "type": "VEC3"
    },
    {
      "bufferView": 3,
      "byteOffset": 37744,
      "componentType": 5126,
      "count": 360,
      "max": [
        1.0,
        0.014649610966444016,
        1.0,
        1.0
      ],
      "min": [
        -1.0,
        -0.964329719543457,
        -1.0,
        1.0
      ],
      "type": "VEC4"
    },
    {
      "bufferView": 1,
      "byteOffset": 18872,
      "componentType": 5126,
      "count": 360,
      "max": [
        0.875,
        1.0
      ],
      "min": [
        0.125,
        0.0
      ],
      "type": "VEC2"
    },
    {
      "bufferView": 1,
      "byteOffset": 21752,
      "componentType": 5126,
      "count": 360,
      "max": [
        0.875,
        1.0
      ],
      "min": [
        0.125,
        0.0
      ],
      "type": "VEC2"
    },
    {
      "bufferView": 0,
      "byteOffset": 52080,
      "componentType": 5125,
      "count": 540,
      "type": "SCALAR"
    }
  ],
  "asset": {
    "extras": {
      "author": "Maxime66410 (https://sketchfab.com/Maxime66410)",
      "license": "CC-BY-NC-4.0 (http://creativecommons.org/licenses/by-nc/4.0/)",
      "source": "https://sketchfab.com/3d-models/bed-squid-game-multiple-slots-e71b6efc029448e0b883b6b45ee7943d",
      "title": "Bed Squid Game Multiple Slots"
    },
    "generator": "Sketchfab-11.90.0",
    "version": "2.0"
  },
  "bufferViews": [
    {
      "buffer": 0,
      "byteLength": 54240,
      "name": "floatBufferViews",
      "target": 34963
    },
    {
      "buffer": 0,
      "byteLength": 24632,
      "byteOffset": 54240,
      "byteStride": 8,
      "name": "floatBufferViews",
      "target": 34962
    },
    {
      "buffer": 0,
      "byteLength": 65256,
      "byteOffset": 78872,
      "byteStride": 12,
      "name": "floatBufferViews",
      "target": 34962
    },
    {
      "buffer": 0,
      "byteLength": 43504,
      "byteOffset": 144128,
      "byteStride": 16,
      "name": "floatBufferViews",
      "target": 34962
    }
  ],
  "buffers": [
    {
      "byteLength": 187632,
      "uri": "scene.bin"
    }
  ],
  "images": [
    {
      "uri": "textures/Cushion_baseColor.jpeg"
    },
    {
      "uri": "textures/Cushion_metallicRoughness.png"
    },
    {
      "uri": "textures/Cushion_normal.png"
    },
    {
      "uri": "textures/MetalBed_baseColor.jpeg"
    },
    {
      "uri": "textures/MetalBed_metallicRoughness.png"
    },
    {
      "uri": "textures/MetalBed_normal.png"
    }
  ],
  "materials": [
    {
      "doubleSided": true,
      "name": "Cushion",
      "normalTexture": {
        "index": 2
      },
      "occlusionTexture": {
        "index": 1
      },
      "pbrMetallicRoughness": {
        "baseColorTexture": {
          "index": 0
        },
        "metallicFactor": 0.0,
        "metallicRoughnessTexture": {
          "index": 1
        }
      }
    },
    {
      "doubleSided": true,
      "name": "MetalBed",
      "normalTexture": {
        "index": 5
      },
      "pbrMetallicRoughness": {
        "baseColorTexture": {
          "index": 3
        },
        "metallicRoughnessTexture": {
          "index": 4
        }
      }
    }
  ],
  "meshes": [
    {
      "name": "Cube.008_Cushion_0",
      "primitives": [
        {
          "attributes": {
            "NORMAL": 1,
            "POSITION": 0,
            "TANGENT": 2,
            "TEXCOORD_0": 3
          },
          "indices": 4,
          "material": 0,
          "mode": 4
        }
      ]
    },
    {
      "name": "Cube.015_MetalBed_0",
      "primitives": [
        {
          "attributes": {
            "NORMAL": 6,
            "POSITION": 5,
            "TANGENT": 7,
            "TEXCOORD_0": 8,
            "TEXCOORD_1": 9
          },
          "indices": 10,
          "material": 1,
          "mode": 4
        }
      ]
    }
  ],
  "nodes": [
    {
      "children": [
        1
      ],
      "matrix": [
        1.0,
        0.0,
        0.0,
        0.0,
        0.0,
        2.220446049250313e-16,
        -1.0,
        0.0,
        0.0,
        1.0,
        2.220446049250313e-16,
        0.0,
        0.0,
        0.0,
        0.0,
        1.0
      ],
      "name": "Sketchfab_model"
    },
    {
      "children": [
        2
      ],
      "matrix": [
        0.009999999776482582,
        0.0,
        0.0,
        0.0,
        0.0,
        0.0,
        0.009999999776482582,
        0.0,
        0.0,
        -0.009999999776482582,
        0.0,
        0.0,
        0.0,
        0.0,
        0.0,
        1.0
      ],
      "name": "BedSquidGamesMultipleSlots.fbx"
    },
    {
      "children": [
        3,
        5
      ],
      "name": "RootNode"
    },
    {
      "children": [
        4
      ],
      "matrix": [
        296.9999694824219,
        0.0,
        0.0,
        0.0,
        -0.0,
        -3.51908642626633e-05,
        -215.9999847412081,
        0.0,
        0.0,
        8.581818580627328,
        -1.398155713573265e-06,
        0.0,
        -400.0,
        66.4349136352539,
        0.0,
        1.0
      ],
      "name": "Cube.008"
    },
    {
      "mesh": 0,
      "name": "Cube.008_Cushion_0"
    },
    {
      "children": [
        6
      ],
      "matrix": [
        19.999998092651367,
        0.0,
        0.0,
        0.0,
        -0.0,
        -3.258413277090093e-06,
        -19.999998092651104,
        0.0,
        0.0,
        113.08502197265476,
        -1.842388860882534e-05,
        0.0,
        -300.0,
        100.0,
        215.61495971679688,
        1.0
      ],
      "name": "Cube.015"
    },
    {
      "mesh": 1,
      "name": "Cube.015_MetalBed_0"
    }
  ],
  "samplers": [
    {
      "magFilter": 9729,
      "minFilter": 9987,
      "wrapS": 10497,
      "wrapT": 10497
    }
  ],
  "scene": 0,
  "scenes": [
    {
      "name": "Sketchfab_Scene",
      "nodes": [
        0
      ]
    }
  ],
  "textures": [
    {
      "sampler": 0,
      "source": 0
    },
    {
      "sampler": 0,
      "source": 1
    },
    {
      "sampler": 0,
      "source": 2
    },
    {
      "sampler": 0,
      "source": 3
    },
    {
      "sampler": 0,
      "source": 4
    },
    {
      "sampler": 0,
      "source": 5
    }
  ]
}
